<?xml version="1.0" encoding="UTF-8"?>
<svg id="Calque_1" xmlns="http://www.w3.org/2000/svg" version="1.1" viewBox="0 0 48 48">
  <!-- Generator: Adobe Illustrator 29.1.0, SVG Export Plug-In . SVG Version: 2.1.0 Build 142)  -->
  <defs>
    <style>
      .st0 {
        fill: #fff;
      }

      .st1 {
        fill: #1e1e1e;
      }
    </style>
  </defs>
  <path class="st0" d="M33.2,11.6c-1.4-1.6-2.1-3.6-2.1-5.6h-6.2v24.8c0,1.3-.6,2.6-1.6,3.5s-2.3,1.5-3.6,1.5c-2.8,0-5.2-2.3-5.2-5.2s3.3-6,6.7-5v-6.3c-6.9-.9-12.9,4.4-12.9,11.3s5.5,11.4,11.4,11.4,11.4-5.1,11.4-11.4v-12.6c2.5,1.8,5.5,2.8,8.6,2.8v-6.2s-3.8.2-6.5-3Z"/>
  <path class="st1" d="M-27.8,11.6c-1.4-1.6-2.1-3.6-2.1-5.6h-6.2v24.8c0,1.3-.6,2.6-1.6,3.5s-2.3,1.5-3.6,1.5c-2.8,0-5.2-2.3-5.2-5.2s3.3-6,6.7-5v-6.3c-6.9-.9-12.9,4.4-12.9,11.3s5.5,11.4,11.4,11.4,11.4-5.1,11.4-11.4v-12.6c2.5,1.8,5.5,2.8,8.6,2.8v-6.2s-3.8.2-6.5-3Z"/>
</svg>