<?xml version="1.0" encoding="UTF-8"?>
<svg id="Calque_1" xmlns="http://www.w3.org/2000/svg" version="1.1" viewBox="0 0 48 48">
  <!-- Generator: Adobe Illustrator 29.1.0, SVG Export Plug-In . SVG Version: 2.1.0 Build 142)  -->
  <defs>
    <style>
      .st0 {
        fill: #fff;
      }

      .st1 {
        fill: #1e1e1e;
      }
    </style>
  </defs>
  <path class="st0" d="M38,6c1.1,0,2.1.4,2.8,1.2.8.8,1.2,1.8,1.2,2.8v28c0,1.1-.4,2.1-1.2,2.8-.8.8-1.8,1.2-2.8,1.2H10c-1.1,0-2.1-.4-2.8-1.2-.8-.8-1.2-1.8-1.2-2.8V10c0-1.1.4-2.1,1.2-2.8.8-.8,1.8-1.2,2.8-1.2h28ZM37,37v-10.6c0-1.7-.7-3.4-1.9-4.6-1.2-1.2-2.9-1.9-4.6-1.9s-3.7,1-4.6,2.6v-2.2h-5.6v16.7h5.6v-9.9c0-1.5,1.2-2.8,2.8-2.8s1.5.3,2,.8c.5.5.8,1.2.8,2v9.9h5.6ZM13.8,17.1c.9,0,1.7-.4,2.4-1s1-1.5,1-2.4c0-1.9-1.5-3.4-3.4-3.4s-1.8.4-2.4,1-1,1.5-1,2.4c0,1.9,1.5,3.4,3.4,3.4ZM16.5,37v-16.7h-5.5v16.7h5.5Z"/>
  <path class="st1" d="M-28,6c1.1,0,2.1.4,2.8,1.2.8.8,1.2,1.8,1.2,2.8v28c0,1.1-.4,2.1-1.2,2.8-.8.8-1.8,1.2-2.8,1.2h-28c-1.1,0-2.1-.4-2.8-1.2-.8-.8-1.2-1.8-1.2-2.8V10c0-1.1.4-2.1,1.2-2.8.8-.8,1.8-1.2,2.8-1.2h28ZM-29,37v-10.6c0-1.7-.7-3.4-1.9-4.6-1.2-1.2-2.9-1.9-4.6-1.9s-3.7,1-4.6,2.6v-2.2h-5.6v16.7h5.6v-9.9c0-1.5,1.2-2.8,2.8-2.8s1.5.3,2,.8c.5.5.8,1.2.8,2v9.9h5.6ZM-52.2,17.1c.9,0,1.7-.4,2.4-1s1-1.5,1-2.4c0-1.9-1.5-3.4-3.4-3.4s-1.8.4-2.4,1-1,1.5-1,2.4c0,1.9,1.5,3.4,3.4,3.4ZM-49.5,37v-16.7h-5.5v16.7h5.5Z"/>
</svg>