<?xml version="1.0" encoding="UTF-8"?>
<svg id="Calque_1" xmlns="http://www.w3.org/2000/svg" version="1.1" viewBox="0 0 48 48">
  <!-- Generator: Adobe Illustrator 29.1.0, SVG Export Plug-In . SVG Version: 2.1.0 Build 142)  -->
  <defs>
    <style>
      .st0 {
        fill: #fff;
      }

      .st1 {
        fill: #1e1e1e;
      }
    </style>
  </defs>
  <path class="st0" d="M15.6,4h16.8c6.4,0,11.6,5.2,11.6,11.6v16.8c0,3.1-1.2,6-3.4,8.2-2.2,2.2-5.1,3.4-8.2,3.4H15.6c-6.4,0-11.6-5.2-11.6-11.6V15.6c0-3.1,1.2-6,3.4-8.2,2.2-2.2,5.1-3.4,8.2-3.4ZM15.2,8c-1.9,0-3.7.8-5.1,2.1-1.4,1.4-2.1,3.2-2.1,5.1v17.6c0,4,3.2,7.2,7.2,7.2h17.6c1.9,0,3.7-.8,5.1-2.1,1.4-1.4,2.1-3.2,2.1-5.1V15.2c0-4-3.2-7.2-7.2-7.2H15.2ZM34.5,11c.7,0,1.3.3,1.8.7.5.5.7,1.1.7,1.8s-.3,1.3-.7,1.8c-.5.5-1.1.7-1.8.7s-1.3-.3-1.8-.7c-.5-.5-.7-1.1-.7-1.8s.3-1.3.7-1.8c.5-.5,1.1-.7,1.8-.7ZM24,14c2.7,0,5.2,1.1,7.1,2.9,1.9,1.9,2.9,4.4,2.9,7.1s-1.1,5.2-2.9,7.1c-1.9,1.9-4.4,2.9-7.1,2.9s-5.2-1.1-7.1-2.9c-1.9-1.9-2.9-4.4-2.9-7.1s1.1-5.2,2.9-7.1c1.9-1.9,4.4-2.9,7.1-2.9ZM24,18c-1.6,0-3.1.6-4.2,1.8-1.1,1.1-1.8,2.7-1.8,4.2s.6,3.1,1.8,4.2c1.1,1.1,2.7,1.8,4.2,1.8s3.1-.6,4.2-1.8c1.1-1.1,1.8-2.7,1.8-4.2s-.6-3.1-1.8-4.2c-1.1-1.1-2.7-1.8-4.2-1.8Z"/>
  <path class="st1" d="M-50.4,4h16.8c6.4,0,11.6,5.2,11.6,11.6v16.8c0,3.1-1.2,6-3.4,8.2-2.2,2.2-5.1,3.4-8.2,3.4h-16.8c-6.4,0-11.6-5.2-11.6-11.6V15.6c0-3.1,1.2-6,3.4-8.2,2.2-2.2,5.1-3.4,8.2-3.4ZM-50.8,8c-1.9,0-3.7.8-5.1,2.1-1.4,1.4-2.1,3.2-2.1,5.1v17.6c0,4,3.2,7.2,7.2,7.2h17.6c1.9,0,3.7-.8,5.1-2.1,1.4-1.4,2.1-3.2,2.1-5.1V15.2c0-4-3.2-7.2-7.2-7.2h-17.6ZM-31.5,11c.7,0,1.3.3,1.8.7.5.5.7,1.1.7,1.8s-.3,1.3-.7,1.8c-.5.5-1.1.7-1.8.7s-1.3-.3-1.8-.7c-.5-.5-.7-1.1-.7-1.8s.3-1.3.7-1.8c.5-.5,1.1-.7,1.8-.7ZM-42,14c2.7,0,5.2,1.1,7.1,2.9,1.9,1.9,2.9,4.4,2.9,7.1s-1.1,5.2-2.9,7.1c-1.9,1.9-4.4,2.9-7.1,2.9s-5.2-1.1-7.1-2.9c-1.9-1.9-2.9-4.4-2.9-7.1s1.1-5.2,2.9-7.1c1.9-1.9,4.4-2.9,7.1-2.9ZM-42,18c-1.6,0-3.1.6-4.2,1.8-1.1,1.1-1.8,2.7-1.8,4.2s.6,3.1,1.8,4.2c1.1,1.1,2.7,1.8,4.2,1.8s3.1-.6,4.2-1.8c1.1-1.1,1.8-2.7,1.8-4.2s-.6-3.1-1.8-4.2c-1.1-1.1-2.7-1.8-4.2-1.8Z"/>
</svg>